<?xml version="1.0" encoding="utf-8"?>
<!-- Generator: Adobe Illustrator 26.0.0, SVG Export Plug-In . SVG Version: 6.00 Build 0)  -->
<svg version="1.1" id="Camada_1" xmlns="http://www.w3.org/2000/svg" xmlns:xlink="http://www.w3.org/1999/xlink" x="0px" y="0px"
	 viewBox="0 0 48 48" style="enable-background:new 0 0 48 48;" xml:space="preserve">
<style type="text/css">
	.st0{fill:#FFC81A;}
</style>
<g id="Camada_2_00000136380065803124450360000013649085990380705977_">
</g>
<g id="Camada_3">
</g>
<g id="Camada_2_00000172417541352517334850000003508113699846484411_">
</g>
<g id="Camada_3_00000043444734728302346770000009792551238564841116_">
</g>
<g>
	<path class="st0" d="M18.8,21.7c1.5,0,2.8-0.9,2.8-1.9c0-1-1.3-1.9-2.8-1.9c-1.5,0-2.8,0.9-2.8,1.9C16,20.8,17.3,21.7,18.8,21.7z"
		/>
	<path class="st0" d="M24,17.7c0.6,0,1.2-0.4,1.2-0.8c0-0.4-0.5-0.8-1.2-0.8c-0.6,0-1.2,0.4-1.2,0.8C22.8,17.4,23.4,17.7,24,17.7z"
		/>
	<path class="st0" d="M29.2,21.7c1.5,0,2.8-0.9,2.8-1.9c0-1-1.3-1.9-2.8-1.9c-1.5,0-2.8,0.9-2.8,1.9C26.4,20.8,27.7,21.7,29.2,21.7z
		"/>
	<path class="st0" d="M8.1,4.5v29.8l16.2,9.3l15.6-9.1v-30H8.1z M15,19.4l0-0.1c0,0,0,0,0,0l0.7-3.5c0.1-0.8,0.7-1.5,1.5-1.9
		l0.3-2.5c0-0.7,0.5-1.3,1.3-1.7l0-0.2c0-0.6,0.7-1.1,1.5-1.1c0.8,0,1.6,0.5,1.6,1.1l0,0.3c0.6,0.4,1.1,0.9,1.1,1.5
		c0,0.1,0,0.1,0,0.2l0,0.3c0.3-0.1,0.6-0.2,1-0.2c0.3,0,0.7,0.1,1,0.2l0-0.3c0-0.1,0-0.1,0-0.2c0-0.6,0.4-1.1,1.1-1.5l0-0.3
		c0-0.6,0.8-1.1,1.6-1.1c0.8,0,1.5,0.5,1.5,1.1l0,0.2c0.8,0.3,1.3,1,1.3,1.7l0.3,2.5c0.9,0.4,1.4,1.1,1.5,1.9l0.7,3.5c0,0,0,0,0,0
		l0,0.1c0,0.1,0,0.2,0,0.3c0,1.7-1.7,3-3.9,3c-2.1,0-3.9-1.3-3.9-3v-1.4c-0.4,0.2-0.8,0.3-1.3,0.3c-0.5,0-0.9-0.1-1.3-0.3v1.4
		c0,1.7-1.7,3-3.9,3c-2.1,0-3.9-1.3-3.9-3C14.9,19.7,14.9,19.6,15,19.4z M38.1,33L24,41l-13.9-8v-4.2L24,37l14.1-7.8V33z M38.1,26.9
		l-14.1,8l-13.9-8v-4.2L24,30.9L38.1,23V26.9z"/>
</g>
</svg>
