<?xml version="1.0" encoding="utf-8"?>
<!-- Generator: Adobe Illustrator 26.0.0, SVG Export Plug-In . SVG Version: 6.00 Build 0)  -->
<svg version="1.1" id="Camada_1" xmlns="http://www.w3.org/2000/svg" xmlns:xlink="http://www.w3.org/1999/xlink" x="0px" y="0px"
	 viewBox="0 0 48 48" style="enable-background:new 0 0 48 48;" xml:space="preserve">
<style type="text/css">
	.st0{fill:#FFC81A;}
</style>
<g id="Camada_2_00000136380065803124450360000013649085990380705977_">
</g>
<g id="Camada_3">
</g>
<g id="Camada_2_00000172417541352517334850000003508113699846484411_">
</g>
<g id="Camada_3_00000043444734728302346770000009792551238564841116_">
</g>
<g>
	<path class="st0" d="M27.2,18.8c0.2,0,0.3,0,0.5,0c0,0,0,0,0,0c0.2,0,0.4,0,0.6,0c0.1,0,0.3,0,0.4,0c0.5-0.1,0.8-0.3,0.8-0.8
		c0.1-1-0.1-1.9-0.6-2.7c-0.3-0.5-0.7-0.7-1.3-0.6c-0.2,0-0.4,0-0.6,0.1c-0.7,0.1-1.4,0.3-1.7,1.1C24.7,17.1,25.7,18.8,27.2,18.8z"
		/>
	<path class="st0" d="M22.5,20.4c0,0.1,0.1,0.2,0.2,0.2c0.4,0,0.9,0,1.2-0.2c0.5,0.1,0.8,0.2,1.2,0.2c0.4,0,0.5-0.1,0.4-0.5
		c-0.3-0.7-0.7-1.4-1.1-2.1c-0.2-0.3-0.4-0.3-0.6,0c-0.4,0.7-0.8,1.4-1.1,2.1C22.5,20.2,22.5,20.4,22.5,20.4z"/>
	<path class="st0" d="M19.4,18.8c0.3,0,0.6,0,0.9,0c0,0,0,0,0,0c0.2,0,0.4,0,0.7,0c0.5,0,0.9-0.2,1.2-0.6c0.6-0.7,0.8-1.5,0.6-2.3
		c-0.2-0.8-0.9-1.1-1.7-1.2c-1.1-0.2-1.7,0-2.1,0.8c-0.4,0.8-0.5,1.6-0.5,2.4C18.5,18.5,18.8,18.7,19.4,18.8z"/>
	<path class="st0" d="M8.1,4.5v29.8l16.2,9.3l15.6-9.1v-30H8.1z M16.8,18.8c0.7-0.5,0.6-1.2,0.5-2c-0.2-1.4-0.4-2.8-0.4-4.2
		c0-2.9,1.5-5,4.4-5.8c2.2-0.6,4.3-0.6,6.4,0.3c2.3,1,3.5,2.8,3.6,5.3c0.1,1.6-0.2,3.2-0.5,4.7c-0.1,0.6,0,1.1,0.4,1.5
		c0.4,0.4,0.4,0.5,0.1,1.1c-0.1,0.2-0.2,0.5-0.2,0.7c0,0.4-0.2,0.8-0.6,0.9c-0.5,0.2-1,0.5-1.5,0.7c-0.8,0.3-1.2,0.9-1.2,1.7
		c0,0.3-0.2,0.5-0.4,0.5c-0.5,0.1-1,0.3-1.4,0.3c-0.5,0.1-1.1,0.1-1.6,0.1c0,0,0,0,0,0.1c-1-0.1-2-0.2-3-0.3c-0.2,0-0.4-0.1-0.6-0.2
		c-0.3-0.1-0.5-0.3-0.5-0.7c0-0.7-0.4-1.3-1.1-1.5c-0.5-0.2-1-0.5-1.6-0.7c-0.4-0.2-0.6-0.5-0.6-1c0-0.3-0.1-0.5-0.2-0.8
		C16.5,19.3,16.4,19.1,16.8,18.8z M38.1,33L24,41l-13.9-8v-4.2L24,37l14.1-7.8V33z M38.1,26.9l-14.1,8l-13.9-8v-4.2L24,30.9L38.1,23
		V26.9z"/>
</g>
</svg>
