<?xml version="1.0" encoding="utf-8"?>
<!-- Generator: Adobe Illustrator 26.0.0, SVG Export Plug-In . SVG Version: 6.00 Build 0)  -->
<svg version="1.1" xmlns="http://www.w3.org/2000/svg" xmlns:xlink="http://www.w3.org/1999/xlink" x="0px" y="0px"
	 viewBox="0 0 48 48" style="enable-background:new 0 0 48 48;" xml:space="preserve">
<style type="text/css">
	.st0{fill:#FFC81A;}
</style>
<g id="Camada_1">
	<g>
		<g id="XMLID_00000001654697620649132790000012791426743805505702_">
			<g>
				<g>
					<path class="st0" d="M41.1,14.1v19.9L24,43.6L6.9,34V14.1L24,4.4L41.1,14.1z M38.9,32.5v-17L24,7.1L9.2,15.5v17L24,40.9
						L38.9,32.5z"/>
				</g>
			</g>
			<g>
				<g>
					<path class="st0" d="M24,41L24,41L9.1,32.6V15.5l0,0L24,7.1l0,0l14.9,8.4v17.1l0,0L24,41z M9.2,32.5L24,40.9l14.8-8.4v-17
						L24,7.2L9.2,15.5V32.5z"/>
				</g>
				<g>
					<path class="st0" d="M24,43.6L24,43.6L6.9,34V14l0,0L24,4.4l0,0L41.1,14v19.9L24,43.6z M7,34L24,43.5l17-9.6V14.1L24,4.5
						L7,14.1V34z"/>
				</g>
			</g>
		</g>
		<g>
			<g>
				<polygon class="st0" points="11.5,18.7 11.5,24 24,30.9 36.5,24 36.5,18.7 24,25.6 				"/>
			</g>
			<g>
				<path class="st0" d="M24,31L24,31L11.4,24v-5.4L24,25.5l12.6-6.9V24L24,31z M11.5,24L24,30.9L36.5,24v-5.2L24,25.6l0,0
					l-12.5-6.9V24z"/>
			</g>
		</g>
		<g>
			<g>
				<polygon class="st0" points="11.5,26.2 11.5,31.6 24,38.5 36.5,31.6 36.5,26.2 24,33.1 				"/>
			</g>
			<g>
				<path class="st0" d="M24,38.5L24,38.5l-12.6-6.9v-5.4L24,33.1l12.6-6.9v5.4L24,38.5z M11.5,31.5L24,38.4l12.5-6.9v-5.2L24,33.2
					l0,0l-12.5-6.9V31.5z"/>
			</g>
		</g>
	</g>
</g>
<g id="Camada_2">
</g>
<g id="Camada_3">
</g>
</svg>
