<svg xmlns="http://www.w3.org/2000/svg" viewBox="0 0 1105.77 301.43"><defs><style>.cls-1{fill:#ffc81a;}</style></defs><g id="Camada_2" data-name="Camada 2"><g id="Camada_1-2" data-name="Camada 1"><polygon class="cls-1" points="71.47 229.96 71.47 0 0 0 0 229.96 0 301.43 71.47 301.43 212.09 301.43 212.09 229.96 71.47 229.96"/><path class="cls-1" d="M160.8,0H129.54A40.2,40.2,0,0,0,89.33,40.2V171.89a40.2,40.2,0,0,0,40.21,40.2h82.55V140.62H170.85a10.05,10.05,0,0,1-10-10.05v-49a10.05,10.05,0,0,1,10-10H230v230h71.47V0H160.8Z"/><path class="cls-1" d="M319.29,145.28h15.54v51.88h27.24v13.66H319.29Z"/><path class="cls-1" d="M383.5,189.39v8a1.74,1.74,0,0,0,2,2h26.19v11.42H380.85q-6.17,0-9.11-2.95t-2.95-9.11V172.34q0-6.17,2.95-9.12t9.11-2.95h18.74q6.17,0,9.12,2.95t3,9.12v17ZM395,171.7h-9.55a1.74,1.74,0,0,0-2,2v6.71H397v-6.71a2.14,2.14,0,0,0-.43-1.56A2.24,2.24,0,0,0,395,171.7Z"/><path class="cls-1" d="M450,163.66v-3.39h14.77V213.7q0,6.21-2.95,9.16t-9.12,2.95H427V214.29h21.07a1.62,1.62,0,0,0,2-2v-4.89l-2.78,1.87a8.72,8.72,0,0,1-4.89,1.51h-7.82a12.84,12.84,0,0,1-9.48-3.95,13.12,13.12,0,0,1-3.91-9.58V173.8a13.08,13.08,0,0,1,3.91-9.57,12.81,12.81,0,0,1,9.48-4h7.82a8.79,8.79,0,0,1,4.89,1.51Zm0,31.44V176a3.44,3.44,0,0,0-1-2.43,3.1,3.1,0,0,0-2.35-1h-7.5a3.13,3.13,0,0,0-2.37,1,3.47,3.47,0,0,0-1,2.45v19.1a3.45,3.45,0,0,0,1,2.44,3.1,3.1,0,0,0,2.37,1h7.5a3.1,3.1,0,0,0,2.35-1A3.42,3.42,0,0,0,450,195.1Z"/><path class="cls-1" d="M490.86,154.93H475.32V142.5h15.54Zm-.42,5.34v50.55H475.68V160.27Z"/><path class="cls-1" d="M527.87,181.16v-7.49a1.74,1.74,0,0,0-2-2H505V160.27h25.54q6.18,0,9.12,2.95t3,9.12v38.48H527.87v-4.34l-2.78,2.33a7.32,7.32,0,0,1-4.89,2h-7.82a12.84,12.84,0,0,1-9.48-3.95,13.12,13.12,0,0,1-3.91-9.58v-2.6a13.12,13.12,0,0,1,3.91-9.58,12.84,12.84,0,0,1,9.48-4Zm-14.39-26.78V152.6c0-1.31.71-2,2.14-2q1.78,0,6.33,2.15a18.68,18.68,0,0,0,7.52,2.15,7.41,7.41,0,0,0,5.94-2.7q2.3-2.7,2.29-8.73v-2.33h-7.54V143a1.74,1.74,0,0,1-2,2c-1.19,0-3.2-.72-6.05-2.15a16.92,16.92,0,0,0-7.25-2.15,8.29,8.29,0,0,0-6.23,2.72q-2.6,2.73-2.59,8.71v2.33Zm14.39,39.76v-4.07H517a3.08,3.08,0,0,0-2.37,1,3.47,3.47,0,0,0-1,2.45v1.55a3.45,3.45,0,0,0,1,2.44,3.08,3.08,0,0,0,2.37,1h7.5a5.23,5.23,0,0,0,2.35-1.78A4.27,4.27,0,0,0,527.87,194.14Z"/><path class="cls-1" d="M564.11,160.27h19.38q6.21,0,9.17,2.95t2.94,9.12v26.42q0,6.17-2.94,9.11t-9.17,2.95H564.11q-6.17,0-9.11-2.95t-3-9.11V172.34q0-6.17,3-9.12T564.11,160.27ZM581,196.7V174.4a1.74,1.74,0,0,0-2-2H568.64a1.74,1.74,0,0,0-2,2v22.3a1.74,1.74,0,0,0,2,2H579A1.74,1.74,0,0,0,581,196.7Z"/><path class="cls-1" d="M332.77,301.43q-13.47,0-13.48-13.53V246.4q0-13.53,13.58-13.53h33.51V247h-29a2,2,0,0,0-1.48.4,2.12,2.12,0,0,0-.38,1.46v36.62a1.64,1.64,0,0,0,1.86,1.86h29v14.11Z"/><path class="cls-1" d="M388.42,248.55h20.27q6.49,0,9.58,3.09t3.09,9.53v27.64q0,6.45-3.09,9.53t-9.58,3.09H388.42q-6.45,0-9.54-3.09t-3.08-9.53V261.17q0-6.45,3.08-9.53T388.42,248.55Zm17.64,38.1V263.33a1.82,1.82,0,0,0-2.06-2.06H393.15a1.82,1.82,0,0,0-2,2.06v23.32a1.82,1.82,0,0,0,2,2.06H404A1.82,1.82,0,0,0,406.06,286.65Z"/><path class="cls-1" d="M431.78,301.43V248.55h15.48v3.54l2.92-2a9.13,9.13,0,0,1,5.12-1.58h9a12.07,12.07,0,0,1,9.49,4.14,14.58,14.58,0,0,1,3.66,10v38.73h-15.4V265a3.62,3.62,0,0,0-1-2.56,3.26,3.26,0,0,0-2.49-1.07h-7.84a3.27,3.27,0,0,0-2.46,1.09,3.65,3.65,0,0,0-1,2.54v36.43Z"/><path class="cls-1" d="M508,260.79v26.06a1.81,1.81,0,0,0,2,2h9v12.53H505.16c-4.31,0-7.48-1-9.54-3.09s-3.08-5.23-3.08-9.53v-28h-8V248.55h8.23V235.84h15.06v12.71h11.28v12.24Z"/><path class="cls-1" d="M546.84,262.46a3.28,3.28,0,0,0-2.46,1.1,3.6,3.6,0,0,0-1,2.54v35.33H527.86V248.55h15.49v3.54l2.92-2a9.13,9.13,0,0,1,5.11-1.58H561.9v13.91Z"/><path class="cls-1" d="M597.56,270.4v-7.84a1.82,1.82,0,0,0-2-2.06H573.66V248.55h26.68q6.45,0,9.53,3.09t3.09,9.53v40.26h-15.4v-4.55l-2.91,2.44a7.61,7.61,0,0,1-5.12,2.11h-8.17a13.41,13.41,0,0,1-9.92-4.14,13.7,13.7,0,0,1-4.09-10v-2.73a13.68,13.68,0,0,1,4.09-10,13.41,13.41,0,0,1,9.92-4.14Zm0,13.58v-4.26H586.23a3.24,3.24,0,0,0-2.48,1.08,3.61,3.61,0,0,0-1,2.56V285a3.63,3.63,0,0,0,1,2.56,3.23,3.23,0,0,0,2.48,1.07h7.84a5.47,5.47,0,0,0,2.47-1.86A4.52,4.52,0,0,0,597.56,284Z"/><path class="cls-1" d="M643.41,260.79v26.06a1.81,1.81,0,0,0,2.05,2h9v12.53H640.59c-4.31,0-7.48-1-9.54-3.09s-3.08-5.23-3.08-9.53v-28h-8V248.55h8.22V235.84h15.06v12.71H654.5v12.24Z"/><path class="cls-1" d="M677.59,279v8.41a1.81,1.81,0,0,0,2,2.05H707v12H674.82q-6.47,0-9.54-3.09t-3.09-9.53V261.17q0-6.45,3.09-9.53t9.54-3.09h19.59q6.47,0,9.54,3.09t3.09,9.53V279Zm12-18.51h-10a1.82,1.82,0,0,0-2,2.06v7h14.1v-7a2.25,2.25,0,0,0-.45-1.63A2.39,2.39,0,0,0,689.63,260.5Z"/><path class="cls-1" d="M736.1,262.46a3.25,3.25,0,0,0-2.46,1.1,3.6,3.6,0,0,0-1,2.54v35.33H717.12V248.55h15.49v3.54l2.92-2a9.13,9.13,0,0,1,5.11-1.58h10.52v13.91Z"/><path class="cls-1" d="M778,262.46a3.28,3.28,0,0,0-2.47,1.1,3.64,3.64,0,0,0-1,2.54v35.33H759.05V248.55h15.49v3.54l2.91-2a9.13,9.13,0,0,1,5.12-1.58h10.51v13.91Z"/><path class="cls-1" d="M812.49,248.55h20.27q6.5,0,9.59,3.09t3.08,9.53v27.64q0,6.45-3.08,9.53t-9.59,3.09H812.49q-6.45,0-9.53-3.09t-3.09-9.53V261.17q0-6.45,3.09-9.53T812.49,248.55Zm17.64,38.1V263.33a1.82,1.82,0,0,0-2-2.06H817.23a1.82,1.82,0,0,0-2.06,2.06v23.32a1.82,1.82,0,0,0,2.06,2.06h10.85A1.82,1.82,0,0,0,830.13,286.65Z"/><path class="cls-1" d="M874.78,262.46a3.28,3.28,0,0,0-2.46,1.1,3.6,3.6,0,0,0-1,2.54v35.33H855.8V248.55h15.49v3.54l2.92-2a9.13,9.13,0,0,1,5.11-1.58h10.52v13.91Z"/><path class="cls-1" d="M913.5,243H897.25V230H913.5Zm-.43,5.59v52.88H897.63V248.55Z"/><path class="cls-1" d="M940.23,260a1.79,1.79,0,0,0-1.63.67,5.91,5.91,0,0,0-.43,2.82,8.64,8.64,0,0,0,.48,3.72,2.53,2.53,0,0,0,2,1h14.77a11.57,11.57,0,0,1,8.58,3.59q3.09,3.39,3.09,10.85,0,11.52-3,15.15t-9.68,3.64H925.07V289.76H949.6a1.7,1.7,0,0,0,1.62-.76c.29-.51.43-1.92.43-4.21s-.14-3.69-.43-4.18a2.42,2.42,0,0,0-1.91-.94H934.54q-6.75-.57-9.4-4.39t-2.27-10.86q0-8.7,3-12.28t9.63-3.59h28.16V260Z"/><path class="cls-1" d="M1021.88,265v36.43h-15.4V265a3.62,3.62,0,0,0-1-2.56,3.26,3.26,0,0,0-2.49-1.07h-7.84a3.27,3.27,0,0,0-2.46,1.09,3.65,3.65,0,0,0-1,2.54v36.43H976.18V248.55h15.48v3.54l2.92-2a9.13,9.13,0,0,1,5.12-1.58h9a12.17,12.17,0,0,1,9.51,4.11l.91,1.2,5.64-3.73a9.16,9.16,0,0,1,5.12-1.58h9a12.07,12.07,0,0,1,9.49,4.14,14.58,14.58,0,0,1,3.66,10v38.73H1036.7V265a3.63,3.63,0,0,0-1-2.56,3.25,3.25,0,0,0-2.48-1.07h-7.84a3.27,3.27,0,0,0-2.47,1.09A3.64,3.64,0,0,0,1021.88,265Z"/><path class="cls-1" d="M1072.84,248.55h20.27q6.5,0,9.58,3.09t3.08,9.53v27.64q0,6.45-3.08,9.53t-9.58,3.09h-20.27q-6.46,0-9.54-3.09t-3.08-9.53V261.17q0-6.45,3.08-9.53T1072.84,248.55Zm17.64,38.1V263.33a1.82,1.82,0,0,0-2.06-2.06h-10.85a1.82,1.82,0,0,0-2.06,2.06v23.32a1.82,1.82,0,0,0,2.06,2.06h10.85A1.82,1.82,0,0,0,1090.48,286.65Z"/></g></g></svg>