<?xml version="1.0" encoding="utf-8"?>
<!-- Generator: Adobe Illustrator 26.0.0, SVG Export Plug-In . SVG Version: 6.00 Build 0)  -->
<svg version="1.1" id="Camada_1" xmlns="http://www.w3.org/2000/svg" xmlns:xlink="http://www.w3.org/1999/xlink" x="0px" y="0px"
	 viewBox="0 0 48 48" style="enable-background:new 0 0 48 48;" xml:space="preserve">
<style type="text/css">
	.st0{fill:#FFC81A;}
</style>
<g id="Camada_2_00000136380065803124450360000013649085990380705977_">
</g>
<g id="Camada_3">
</g>
<g id="Camada_2_00000172417541352517334850000003508113699846484411_">
</g>
<g id="Camada_3_00000043444734728302346770000009792551238564841116_">
</g>
<path class="st0" d="M8.1,4.5v29.8l16.2,9.3l15.6-9.1v-30H8.1z M15.7,11h13.2v-1c0-0.6,0.5-1.1,1.1-1.1c0.6,0,1.1,0.5,1.1,1.1v1
	l2.3,0.2c0.3-0.2,0.6-0.3,0.9-0.3c0.8,0,1.5,0.7,1.5,1.5S35,14,34.2,14c-0.3,0-0.7-0.1-0.9-0.3l-2.2,0.2v1c0,0.6-0.5,1.1-1.1,1.1
	c-0.3,0-0.5-0.1-0.7-0.3c-0.2-0.2-0.4-0.5-0.4-0.8v-1l-13.4-0.1l-3.1-1.4L15.7,11z M13.8,18c0.3,0,0.7,0.1,0.9,0.3l2.2-0.2v-1
	c0-0.6,0.5-1.1,1.1-1.1c0.3,0,0.5,0.1,0.7,0.3c0.2,0.2,0.4,0.5,0.4,0.8v1l13.4,0.1l3.1,1.4L32.3,21H19.2v1c0,0.6-0.5,1.1-1.1,1.1
	c-0.6,0-1.1-0.5-1.1-1.1v-1l-2.3-0.2c-0.3,0.2-0.6,0.3-0.9,0.3c-0.8,0-1.5-0.7-1.5-1.5S13,18,13.8,18z M38.1,33L24,41l-13.9-8v-4.2
	L24,37l14.1-7.8V33z M38.1,26.9l-14.1,8l-13.9-8v-4.2L24,30.9L38.1,23V26.9z"/>
</svg>
