<?xml version="1.0" encoding="utf-8"?>
<!-- Generator: Adobe Illustrator 26.0.0, SVG Export Plug-In . SVG Version: 6.00 Build 0)  -->
<svg version="1.1" id="Camada_1" xmlns="http://www.w3.org/2000/svg" xmlns:xlink="http://www.w3.org/1999/xlink" x="0px" y="0px"
	 viewBox="0 0 48 48" style="enable-background:new 0 0 48 48;" xml:space="preserve">
<style type="text/css">
	.st0{fill:#FFC81A;}
</style>
<g id="Camada_2_00000136380065803124450360000013649085990380705977_">
</g>
<g id="Camada_3">
</g>
<g id="Camada_2_00000172417541352517334850000003508113699846484411_">
</g>
<g id="Camada_3_00000043444734728302346770000009792551238564841116_">
</g>
<path class="st0" d="M8.1,4.5v29.8l16.2,9.3l15.6-9.1v-30H8.1z M28,7.5c-0.1,0.3-0.2,0.6-0.2,1c-0.4,1.9-0.2,3.8,0.4,5.6
	c0.1,0.2,0,0.3-0.1,0.5c-0.1,0.2-0.3,0.4-0.4,0.5c0,0,0,0-0.1,0.1c0.1-2-1.1-2.9-2.9-3.3C24.7,10.6,26.6,8,28,7.5z M16.2,8.8
	C16.2,8.8,16.2,8.8,16.2,8.8C16.2,8.8,16.2,8.8,16.2,8.8c1.2,0.9,2.6,1.6,4,2.1c1.3,0.5,2.6,0.9,3.8,1.4c0.2,0.1,0.5,0.1,0.8,0.2
	c0.3,0.1,0.6,0.2,0.9,0.4c1.1,0.6,1.5,1.5,1.5,2.7c0,0.2,0.1,0.3,0.3,0.2c0.2,0,0.3-0.1,0.4-0.2c0.2-0.2,0.4-0.5,0.6-0.7
	c0.2-0.3,0.5-0.6,0.7-0.8c0.6-0.6,1.3-0.6,2-0.1c0.2,0.1,0.3,0.3,0.4,0.4c0,0,0.1,0.1,0.1,0.2c-0.2,0.1-0.4,0.2-0.6,0.2
	c-0.5,0.2-0.9,0.6-0.9,1.3c-0.1,1-0.3,1.9-0.8,2.8c-0.6,1.2-1.5,2-2.8,2.3c-0.4,0.1-0.8,0-1.2,0.1c-0.8,0-1.5,0.1-2.3,0.1
	c-1.2,0.1-2.1,0.7-2.9,1.5c-0.3,0.3-0.5,0.6-0.8,1c-1.1-0.5-1.9-1.6-1.4-3.1c0-0.1,0.1-0.1,0.2-0.2c1.1-0.2,2.1-0.6,3.1-1.1
	c0.6-0.3,1.2-0.6,1.7-1.1c0.1,0,0.1-0.1,0.2-0.1c-0.1,0-0.2-0.1-0.2-0.1c-1.8-0.6-3.4-1.5-4.7-2.8C16.7,13.5,15.9,11.4,16.2,8.8z
	 M38.1,33L24,41l-13.9-8v-4.2L24,37l14.1-7.8V33z M38.1,26.9l-14.1,8l-13.9-8v-4.2L24,30.9L38.1,23V26.9z"/>
</svg>
