<?xml version="1.0" encoding="utf-8"?>
<!-- Generator: Adobe Illustrator 26.0.0, SVG Export Plug-In . SVG Version: 6.00 Build 0)  -->
<svg version="1.1" id="Camada_1" xmlns="http://www.w3.org/2000/svg" xmlns:xlink="http://www.w3.org/1999/xlink" x="0px" y="0px"
	 viewBox="0 0 48 48" style="enable-background:new 0 0 48 48;" xml:space="preserve">
<style type="text/css">
	.st0{fill:#FFC81A;}
</style>
<g id="Camada_2_00000136380065803124450360000013649085990380705977_">
</g>
<g id="Camada_3">
</g>
<g id="Camada_2_00000172417541352517334850000003508113699846484411_">
</g>
<g id="Camada_3_00000043444734728302346770000009792551238564841116_">
</g>
<g>
	<path class="st0" d="M24,17.6c0.9,0,1.6-0.7,1.6-1.6c0-0.9-0.7-1.6-1.6-1.6c-0.9,0-1.6,0.7-1.6,1.6C22.4,16.9,23.1,17.6,24,17.6z
		 M24,15.1c0.5,0,0.9,0.4,0.9,0.9S24.5,17,24,17s-0.9-0.4-0.9-0.9S23.5,15.1,24,15.1z"/>
	<path class="st0" d="M17.4,18.1L17.4,18.1c0.2,0.7,0.6,1.4,1,1.9l0.1,0.2l0,0c1.3,1.7,3.2,2.7,5.5,2.7s4.2-1.1,5.5-2.7l0,0l0.1-0.2
		c0.4-0.6,0.7-1.2,1-1.9l0,0h0c0.2-0.6,0.3-1.3,0.3-2.1c0-0.9-0.2-1.7-0.5-2.5l0,0l-0.1-0.2c0,0,0,0,0,0l0,0c0,0,0,0,0,0
		c0-0.1-0.1-0.2-0.1-0.3c0,0,0,0,0,0c-0.2-0.4-0.4-0.8-0.7-1.1l0-0.1l0,0c-1.3-1.6-3.2-2.6-5.4-2.6s-4.1,1-5.4,2.6l0,0l0,0.1
		c-0.3,0.4-0.5,0.7-0.7,1.1c0,0,0,0,0,0c0,0.1-0.1,0.2-0.1,0.3c0,0,0,0,0,0l0,0c0,0,0,0,0,0l-0.1,0.2l0,0c-0.3,0.8-0.5,1.6-0.5,2.5
		C17.1,16.7,17.2,17.4,17.4,18.1L17.4,18.1z M22.7,22.2c-1.5-0.3-2.7-1.1-3.6-2.2l2.6-1.1c0.2-0.1,0.5-0.1,0.7,0
		c0.2,0.1,0.3,0.4,0.3,0.6V22.2z M25.3,22.2v-2.7c0-0.2,0.1-0.5,0.3-0.6c0.2-0.1,0.5-0.1,0.7,0l2.6,1.1C28,21.1,26.7,21.9,25.3,22.2
		z M30.3,16c0,0.6-0.1,1.3-0.3,1.8l-2.5-0.9c-0.2-0.1-0.3-0.3-0.3-0.6c0-0.3,0-0.5,0.2-0.7l2.5-1.7C30.1,14.6,30.3,15.3,30.3,16z
		 M25.3,9.9c1.4,0.3,2.7,1.1,3.6,2.1l-2.3,1.2c-0.3,0.1-0.7,0.1-1,0c-0.2-0.1-0.3-0.3-0.3-0.5V9.9z M22.7,9.9v2.8
		c0,0.3-0.2,0.5-0.3,0.5c-0.3,0.1-0.6,0.1-0.9,0L19.2,12C20.1,11,21.3,10.2,22.7,9.9z M18.4,13.2c0-0.1,0.1-0.1,0.1-0.2
		c0-0.1,0.1-0.1,0.1-0.2c0-0.1,0.1-0.2,0.1-0.2l2.4,1.2c0.4,0.3,1,0.3,1.5,0c0.4-0.2,0.6-0.6,0.6-1.1V9.8c0,0,0.1,0,0.1,0
		c0.3,0,0.7,0,1,0c0,0,0,0,0,0c0,0,0.1,0,0.1,0v2.9c0,0.4,0.2,0.8,0.5,1c0.4,0.3,1.1,0.3,1.6,0.1l2.5-1.2c0.1,0.1,0.1,0.2,0.1,0.2
		c0,0.1,0.1,0.1,0.1,0.2c0,0.1,0.1,0.1,0.1,0.2c0,0,0,0.1,0.1,0.1L27,15.1l0,0c-0.3,0.3-0.4,0.8-0.4,1.3c0.1,0.5,0.3,0.9,0.7,1.1
		l2.6,0.9c-0.1,0.1-0.1,0.3-0.2,0.4c0,0,0,0,0,0c-0.1,0.1-0.1,0.2-0.2,0.3c0,0.1-0.1,0.2-0.1,0.2l-2.7-1.1c-0.4-0.2-0.9-0.2-1.3,0.1
		c-0.4,0.2-0.6,0.7-0.6,1.1v2.8c0,0-0.1,0-0.1,0c-0.3,0-0.7,0-1,0c0,0,0,0,0,0c0,0-0.1,0-0.1,0v-2.8c0-0.5-0.2-0.9-0.6-1.1
		c-0.4-0.2-0.9-0.3-1.3-0.1l-2.7,1.1c0-0.1-0.1-0.2-0.1-0.2c-0.1-0.1-0.1-0.2-0.2-0.3c0,0,0,0,0,0c-0.1-0.1-0.1-0.3-0.2-0.4l2.5-0.9
		l0,0c0.4-0.2,0.6-0.6,0.7-1.1c0.1-0.5-0.1-1-0.4-1.3l-2.7-1.9C18.4,13.3,18.4,13.2,18.4,13.2z M18.1,13.9l2.5,1.7
		c0.1,0.2,0.2,0.4,0.2,0.7c0,0.3-0.2,0.5-0.3,0.6L18,17.9c-0.2-0.6-0.3-1.2-0.3-1.8C17.7,15.3,17.9,14.6,18.1,13.9z"/>
	<path class="st0" d="M8.1,4.5v29.8l16.2,9.3l15.6-9.1v-30H8.1z M24,6.6c5.2,0,9.4,4.2,9.4,9.4c0,5.2-4.2,9.4-9.4,9.4
		s-9.4-4.2-9.4-9.4C14.6,10.9,18.8,6.6,24,6.6z M38.1,33L24,41l-13.9-8v-4.2L24,37l14.1-7.8V33z M38.1,26.9l-14.1,8l-13.9-8v-4.2
		L24,30.9L38.1,23V26.9z"/>
</g>
</svg>
