<?xml version="1.0" encoding="utf-8"?>
<!-- Generator: Adobe Illustrator 26.0.0, SVG Export Plug-In . SVG Version: 6.00 Build 0)  -->
<svg version="1.1" xmlns="http://www.w3.org/2000/svg" xmlns:xlink="http://www.w3.org/1999/xlink" x="0px" y="0px"
	 viewBox="0 0 48 48" style="enable-background:new 0 0 48 48;" xml:space="preserve">
<style type="text/css">
	.st0{fill:#FFC81A;}
</style>
<g id="Camada_1">
	<g>
		<g id="XMLID_00000163754726076850951600000001803936329904839042_">
			<g>
				<g>
					<path class="st0" d="M41.1,14.1v19.9L24,43.6L6.9,34V14.1L24,4.4L41.1,14.1z M38.9,32.5v-17L24,7.1L9.2,15.5v17L24,40.9
						L38.9,32.5z"/>
				</g>
			</g>
			<g>
				<g>
					<path class="st0" d="M24,41L24,41L9.1,32.6V15.5L24,7.1l14.9,8.4v17.1l0,0L24,41z M9.2,32.5L24,40.9l14.8-8.4v-17L24,7.2
						L9.2,15.5V32.5z"/>
				</g>
				<g>
					<path class="st0" d="M24,43.6L24,43.6L6.9,34V14l0,0L24,4.4l0,0L41.1,14v19.9L24,43.6z M7,34L24,43.5l17-9.6V14.1L24,4.5
						L7,14.1V34z"/>
				</g>
			</g>
		</g>
		<g>
			<g>
				<polygon class="st0" points="11.5,25.4 11.5,30.9 36.2,16.6 31.6,13.9 				"/>
			</g>
		</g>
		<g>
			<g>
				<polygon class="st0" points="12.9,32.2 17.6,34.9 36.6,24 36.6,18.5 				"/>
			</g>
		</g>
		<g>
			<g>
				<polygon class="st0" points="19.5,35.8 24,38.4 36.6,31.4 36.6,25.9 				"/>
			</g>
		</g>
		<g>
			<g>
				<polygon class="st0" points="15,19.8 15.6,21.5 14.1,20.4 12.7,21.5 13.1,19.8 11.7,18.7 13.5,18.4 14.1,17 14.7,18.4 
					16.4,18.7 				"/>
			</g>
		</g>
		<g>
			<g>
				<polygon class="st0" points="20.3,16.7 20.9,18.4 19.4,17.4 17.9,18.4 18.4,16.7 17,15.6 18.8,15.4 19.4,13.9 20,15.4 
					21.7,15.6 				"/>
			</g>
		</g>
	</g>
</g>
<g id="Camada_2">
</g>
<g id="Camada_3">
</g>
</svg>
