<?xml version="1.0" encoding="utf-8"?>
<!-- Generator: Adobe Illustrator 26.0.0, SVG Export Plug-In . SVG Version: 6.00 Build 0)  -->
<svg version="1.1" xmlns="http://www.w3.org/2000/svg" xmlns:xlink="http://www.w3.org/1999/xlink" x="0px" y="0px"
	 viewBox="0 0 48 48" style="enable-background:new 0 0 48 48;" xml:space="preserve">
<style type="text/css">
	.st0{fill:#FFC81A;}
</style>
<g id="Camada_1">
	<g>
		<g id="XMLID_00000002370727660623963270000009909557665847313575_">
			<g>
				<g>
					<path class="st0" d="M41.1,14.1v19.9L24,43.6L6.9,34V14.1L24,4.4L41.1,14.1z M38.9,32.5v-17L24,7.1L9.2,15.5v17L24,40.9
						L38.9,32.5z"/>
				</g>
			</g>
			<g>
				<g>
					<path class="st0" d="M24,41L24,41L9.1,32.6V15.5L24,7.1l14.9,8.4v17.1l0,0L24,41z M9.2,32.5L24,40.9l14.8-8.4v-17L24,7.2
						L9.2,15.5V32.5z"/>
				</g>
				<g>
					<path class="st0" d="M24,43.6L24,43.6L6.9,34V14l0,0L24,4.4l0,0L41.1,14v19.9L24,43.6z M7,34L24,43.5l17-9.6V14.1L24,4.5
						L7,14.1V34z"/>
				</g>
			</g>
		</g>
		<g>
			<g>
				<polygon class="st0" points="11.5,16.7 11.5,19.5 24,26.5 36.5,19.5 36.5,16.7 34.2,15.4 24,21.1 13.7,15.4 				"/>
			</g>
		</g>
		<g>
			<g>
				<polygon class="st0" points="15.7,14.4 24,19 32.3,14.4 27.7,11.6 24,13.7 20.4,11.6 				"/>
			</g>
		</g>
		<g>
			<g>
				<polygon class="st0" points="25.5,32.7 26.5,35.5 24,33.8 21.6,35.5 22.4,32.7 20.1,30.9 23.1,30.5 24,28.1 25,30.5 27.9,30.9 
									"/>
			</g>
		</g>
		<g>
			<g>
				<polygon class="st0" points="17.3,28.8 18.1,31 16.1,29.7 14.2,31 14.8,28.8 13,27.4 15.3,27 16.1,25.1 16.8,27 19.2,27.4 				
					"/>
			</g>
		</g>
		<g>
			<g>
				<polygon class="st0" points="33.1,28.8 33.9,31 31.9,29.7 30,31 30.6,28.8 28.8,27.4 31.2,27 31.9,25.1 32.7,27 35,27.4 				"/>
			</g>
		</g>
	</g>
</g>
<g id="Camada_2">
</g>
<g id="Camada_3">
</g>
</svg>
